<?xml version="1.0" encoding="UTF-8" standalone="no"?>
<svg
     xmlns:dc="http://purl.org/dc/elements/1.1/"
     xmlns:cc="http://creativecommons.org/ns#"
     xmlns:rdf="http://www.w3.org/1999/02/22-rdf-syntax-ns#"
     xmlns:svg="http://www.w3.org/2000/svg"
     xmlns="http://www.w3.org/2000/svg"
     xmlns:xlink="http://www.w3.org/1999/xlink"
     xmlns:sodipodi="http://sodipodi.sourceforge.net/DTD/sodipodi-0.dtd"
     xmlns:inkscape="http://www.inkscape.org/namespaces/inkscape"
     style="shape-rendering:crispEdges"
     id="svg1987"
     version="1.1"
     height="1000"
     width="1000"
     data-scale="0.001"
     sodipodi:docname="def.svg"
     inkscape:version="0.92.3 (2405546, 2018-03-11)">
    <sodipodi:namedview
         pagecolor="#ffffff"
         bordercolor="#666666"
         borderopacity="1"
         objecttolerance="10"
         gridtolerance="10"
         guidetolerance="10"
         inkscape:pageopacity="0"
         inkscape:pageshadow="2"
         inkscape:window-width="1920"
         inkscape:window-height="996"
         id="namedview7"
         showgrid="false"
         inkscape:current-layer="layer1"
         inkscape:zoom="0.056568545"
         inkscape:cx="1502.1314"
         inkscape:cy="1843.3682"
         inkscape:window-x="-8"
         inkscape:window-y="-8"
         inkscape:window-maximized="1"
         showguides="false"
         inkscape:guide-bbox="true">
        <inkscape:grid
             type="xygrid"
             id="grid8" />
    </sodipodi:namedview>
    <defs
         id="defs1981" />
    <metadata
         id="metadata1984">
        <rdf:RDF>
            <cc:Work
                 rdf:about="">
                <dc:format>image/svg+xml</dc:format>
                <dc:type
                     rdf:resource="http://purl.org/dc/dcmitype/StillImage" />
                <dc:title />
            </cc:Work>
        </rdf:RDF>
    </metadata>
    <g
         style="display:inline;opacity:1"
         inkscape:label="MainLayer"
         id="layer1"
         inkscape:groupmode="layer">
        <path
             class="terrain"
             id="path871"
             d="M 10467.965,1964.1113 L 10428.449,1879.5801 L 10399.533,1819.5391 L 10372.398,1764.6953 L 10347.117,1715.3359 L 10323.76,1671.752 L 10312.234,1651.4941 L 10300.033,1631.3281 L 10287.168,1611.252 L 10273.639,1591.2656 L 10259.453,1571.3672 L 10244.619,1551.5566 L 10229.141,1531.834 L 10213.023,1512.1992 L 10196.275,1492.6523 L 10178.9,1473.1895 L 10160.904,1453.8145 L 10142.297,1434.5254 L 10103.26,1396.2012 L 10061.84,1358.2148 L 10018.082,1320.5605 L 9972.0352,1283.2363 L 9923.7461,1246.2402 L 9873.2637,1209.5645 L 9820.6348,1173.207 L 9765.9082,1137.166 L 9709.1309,1101.4375 L 9650.3496,1066.0156 L 9589.6152,1030.8984 L 9526.9727,996.08008 L 9462.4707,961.56055 L 9396.1562,927.33398 L 9328.0781,893.39648 L 9258.2832,859.74609 L 9186.8203,826.37891 L 9113.7363,793.28906 L 9039.0781,760.47461 L 8962.8965,727.93164 L 8885.2363,695.65625 L 8806.1465,663.64453 L 8725.6738,631.89453 L 8643.8672,600.40234 L 8560.7734,569.16211 L 8476.4414,538.17188 L 8390.918,507.42578 L 8304.252,476.92383 L 8216.4902,446.66016 L 8127.6797,416.63281 L 8037.8691,386.83594 L 7947.1055,357.26758 L 7762.9141,298.79688 L 7575.4844,241.19531 L 7385.1992,184.43164 L 7192.4434,128.47852 L 6997.5938,73.302734 L 6801.0371,18.880859 L 6603.1523,-34.820312 L 6404.3242,-87.830078 L 6204.9316,-140.17578 L 6005.3574,-191.88672 L 5805.9844,-242.99219 L 5409.3672,-343.50195 L 5312.8027,-368.76172 L 5220.2773,-394.81641 L 5131.7051,-421.66016 L 5047.0098,-449.2832 L 4966.1055,-477.68164 L 4927.0508,-492.16797 L 4888.916,-506.8457 L 4851.6875,-521.71289 L 4815.3574,-536.76758 L 4779.9141,-552.01172 L 4745.3496,-567.44336 L 4711.6523,-583.06055 L 4678.8105,-598.86133 L 4646.8184,-614.84766 L 4615.6621,-631.01758 L 4585.334,-647.37109 L 4555.8223,-663.9043 L 4527.1172,-680.61914 L 4499.209,-697.51367 L 4472.0859,-714.58594 L 4445.7402,-731.83789 L 4420.1621,-749.26562 L 4395.3398,-766.87109 L 4371.2617,-784.65039 L 4347.9219,-802.60352 L 4325.3066,-820.73047 L 4303.4082,-839.0293 L 4282.2148,-857.50195 L 4261.7168,-876.14258 L 4241.9043,-894.95508 L 4222.7656,-913.93359 L 4204.2949,-933.08203 L 4186.4766,-952.39844 L 4169.3047,-971.87891 L 4152.7676,-991.52539 L 4136.8555,-1011.3359 L 4121.5566,-1031.3105 L 4106.8633,-1051.4473 L 4092.7637,-1071.7461 L 4079.25,-1092.2031 L 4066.3086,-1112.8223 L 4053.9316,-1133.5996 L 4042.1094,-1154.5352 L 4030.8301,-1175.627 L 4020.0859,-1196.875 L 4009.8633,-1218.2793 L 4000.1543,-1239.8359 L 3990.9512,-1261.5469 L 3982.2383,-1283.4102 L 3966.2539,-1327.5918 L 3952.1211,-1372.3711 L 3939.7598,-1417.7422 L 3929.0859,-1463.6973 L 3920.0234,-1510.2285 L 3912.4863,-1557.3301 L 3906.3984,-1604.9941 L 3901.6758,-1653.2148 L 3898.2363,-1701.9824 L 3896.002,-1751.2891 L 3894.8926,-1801.1309 L 3894.8242,-1851.498 L 3895.7168,-1902.3828 L 3897.4902,-1953.7812 L 3900.0625,-2005.6816 L 3903.3535,-2058.0801 L 3907.2832,-2110.9668 L 3916.7305,-2218.1836 L 3927.7578,-2327.2695 L 3951.9609,-2550.8203 L 3963.8418,-2665.1699 L 3974.7129,-2781.1562 L 3979.5684,-2839.7461 L 3983.9277,-2898.7227 L 3987.7109,-2958.0801 L 3990.8379,-3017.8105 L 3993.2246,-3077.9082 L 3994.7949,-3138.3633 L 3995.4648,-3199.168 L 3995.1523,-3260.3184 L 3994.4102,-3290.6836 L 3993.0137,-3320.4648 L 3990.9746,-3349.666 L 3988.2969,-3378.291 L 3984.9922,-3406.3457 L 3981.0645,-3433.832 L 3976.5254,-3460.7578 L 3971.3809,-3487.125 L 3965.6406,-3512.9375 L 3959.3086,-3538.2012 L 3952.3965,-3562.9219 L 3944.9102,-3587.0996 L 3936.8594,-3610.7441 L 3928.25,-3633.8574 L 3919.0898,-3656.4414 L 3909.3887,-3678.5059 L 3899.1543,-3700.0508 L 3888.3926,-3721.082 L 3877.1113,-3741.6055 L 3865.3223,-3761.625 L 3853.0293,-3781.1426 L 3840.2422,-3800.166 L 3826.9668,-3818.6973 L 3813.2148,-3836.7422 L 3798.9902,-3854.3047 L 3784.3047,-3871.3887 L 3769.1621,-3888 L 3753.5723,-3904.1426 L 3737.543,-3919.8203 L 3721.082,-3935.0371 L 3704.1992,-3949.7988 L 3686.8984,-3964.1113 L 3669.1914,-3977.9746 L 3651.084,-3991.3965 L 3632.584,-4004.3809 L 3613.6992,-4016.9316 L 3594.4395,-4029.0547 L 3574.8105,-4040.752 L 3554.8223,-4052.0293 L 3534.4805,-4062.8906 L 3513.7949,-4073.3418 L 3492.7715,-4083.3867 L 3449.7461,-4102.2734 L 3405.4668,-4119.5859 L 3360,-4135.3633 L 3313.4062,-4149.6367 L 3265.748,-4162.4453 L 3217.0918,-4173.8223 L 3167.4961,-4183.8047 L 3117.0273,-4192.4258 L 3065.748,-4199.7246 L 3013.7207,-4205.7344 L 2961.0098,-4210.4922 L 2907.6758,-4214.0332 L 2853.7852,-4216.3926 L 2799.3984,-4217.6055 L 2744.5781,-4217.709 L 2689.3906,-4216.7383 L 2633.8965,-4214.7266 L 2578.1602,-4211.7129 L 2522.2441,-4207.7305 L 2466.2109,-4202.8164 L 2410.125,-4197.0059 L 2354.0488,-4190.334 L 2298.0449,-4182.8379 L 2242.1777,-4174.5508 L 2186.5098,-4165.5098 L 2131.1016,-4155.75 L 2076.0215,-4145.3066 L 2021.3281,-4134.2168 L 1967.0879,-4122.5137 L 1913.3613,-4110.2363 L 1860.2129,-4097.418 L 1807.7051,-4084.0938 L 1755.9004,-4070.3008 L 1704.8633,-4056.0742 L 1654.6582,-4041.4492 L 1605.3438,-4026.4629 L 1556.9883,-4011.1484 L 1509.6504,-3995.543 L 1463.3965,-3979.6816 L 1418.2891,-3963.5996 L 1374.3887,-3947.334 L 1331.7617,-3930.9199 L 1290.4707,-3914.3926 L 1250.7285,-3897.6621 L 1212.6855,-3880.6074 L 1176.3066,-3863.2148 L 1141.5566,-3845.4727 L 1108.3984,-3827.3652 L 1076.7969,-3808.8809 L 1046.7168,-3790.0059 L 1018.123,-3770.7266 L 990.97852,-3751.0293 L 965.25,-3730.9023 L 940.89844,-3710.3301 L 917.89258,-3689.2988 L 896.19336,-3667.7988 L 875.76562,-3645.8145 L 856.57422,-3623.3301 L 838.58398,-3600.3379 L 821.75977,-3576.8184 L 806.06445,-3552.7637 L 791.46289,-3528.1562 L 777.92188,-3502.9844 L 765.40039,-3477.2363 L 753.86914,-3450.8945 L 743.28711,-3423.9512 L 733.62305,-3396.3887 L 724.83984,-3368.1934 L 716.89844,-3339.3555 L 709.76953,-3309.8594 L 703.41211,-3279.6914 L 697.79297,-3248.8398 L 692.87695,-3217.2891 L 688.62891,-3185.0293 L 685.00977,-3152.043 L 681.98633,-3118.3184 L 679.52344,-3083.8438 L 677.58594,-3048.6035 L 676.13672,-3012.584 L 674.56055,-2938.1602 L 674.51367,-2860.4648 L 675.70898,-2779.3887 L 677.86328,-2694.8262 L 683.9043,-2514.8184 L 690.36133,-2319.582 L 693.0332,-2215.9883 L 694.95312,-2108.2656 L 695.83789,-1996.3105 L 695.40234,-1880.0137 L 693.36133,-1759.2715 L 689.42969,-1633.9727 L 687.47656,-1570.75 L 686.57422,-1508.6621 L 686.68555,-1447.6543 L 687.78125,-1387.6758 L 689.83008,-1328.6758 L 692.80078,-1270.6035 L 696.66016,-1213.4062 L 701.37891,-1157.0312 L 706.92188,-1101.4297 L 713.26172,-1046.5508 L 720.36523,-992.33984 L 728.19922,-938.74805 L 736.73438,-885.7207 L 745.93945,-833.21094 L 755.7793,-781.16406 L 766.22656,-729.5293 L 777.24609,-678.25586 L 788.80859,-627.29102 L 800.88281,-576.58398 L 813.4375,-526.08398 L 839.85547,-425.49609 L 867.8125,-325.11523 L 897.05469,-224.5332 L 927.33203,-123.33398 L 989.97461,82.554688 L 1021.8359,188.07031 L 1053.7227,295.84766 L 1085.3789,406.29688 L 1116.5547,519.83398 L 1146.9941,636.86719 L 1161.8613,696.82422 L 1176.4492,757.80859 L 1190.7285,819.875 L 1204.6641,883.07227 L 1218.2285,947.45312 L 1231.3887,1013.0664 L 1244.1113,1079.9668 L 1256.3691,1148.2051 L 1268.125,1217.834 L 1279.3516,1288.9004 L 1290.0156,1361.4609 L 1300.0859,1435.5625 L 1309.5293,1511.2598 L 1318.3184,1588.6035 L 1326.416,1667.6445 L 1333.7949,1748.4355 L 1340.4238,1831.0273 L 1346.2676,1915.4688 L 1351.2969,2001.8164 L 1355.4805,2090.1172 L 1358.7852,2180.4258 L 1361.1797,2272.793 L 1363.7051,2364.4512 L 1367.3984,2452.6523 L 1372.2246,2537.4727 L 1378.1523,2618.9922 L 1385.1484,2697.2852 L 1393.1816,2772.4297 L 1402.2188,2844.502 L 1412.2266,2913.5801 L 1423.1719,2979.7402 L 1435.0215,3043.0586 L 1447.7422,3103.6133 L 1461.3047,3161.4805 L 1475.6719,3216.7383 L 1490.8145,3269.4609 L 1506.6973,3319.7285 L 1523.2891,3367.6172 L 1540.5566,3413.2031 L 1558.4668,3456.5645 L 1576.9863,3497.7773 L 1596.084,3536.918 L 1615.7246,3574.0625 L 1635.877,3609.291 L 1656.5098,3642.6797 L 1677.5879,3674.3027 L 1699.0801,3704.2402 L 1720.9512,3732.5684 L 1743.1719,3759.3633 L 1765.707,3784.7012 L 1788.5234,3808.6621 L 1811.5898,3831.3184 L 1834.873,3852.752 L 1858.3398,3873.0371 L 1881.957,3892.25 L 1905.6934,3910.4688 L 1929.5156,3927.7715 L 1953.3906,3944.2344 L 1977.2852,3959.9316 L 2001.168,3974.9434 L 2048.7617,4003.2168 L 2095.9121,4029.668 L 2142.3555,4054.9121 L 2187.8301,4079.5664 L 2232.0723,4104.2441 L 2274.8223,4129.5625 L 2287.7109,4137.7012 L 2361.7109,4121.1621 L 2457.5605,4121.6035 L 2547.1758,4143.5566 L 2632.3184,4184.8848 L 2714.75,4243.4473 L 2796.2324,4317.1055 L 2963.4004,4501.1602 L 3147.918,4719.9414 L 3363.8809,4956.3398 L 3625.3848,5193.248 L 3777.6191,5306.5488 L 3946.5273,5413.5605 L 4133.8672,5512.1465 L 4341.4043,5600.168 L 4570.8965,5675.4863 L 4824.1113,5735.9648 L 5102.8066,5779.4609 L 5408.7461,5803.8418 L 5743.6914,5806.9629 L 6109.4043,5786.6914 L 6483.5312,5735.5176 L 6842.6816,5648.9805 L 7187.0586,5529.5039 L 7516.8652,5379.5156 L 7832.3027,5201.4395 L 8133.5762,4997.7031 L 8420.8906,4770.7324 L 8694.4473,4522.9492 L 8954.4492,4256.7832 L 9201.0996,3974.6582 L 9434.6035,3679 L 9655.1641,3372.2363 L 9862.9824,3056.791 L 10058.264,2735.0879 L 10241.211,2409.5566 L 10412.025,2082.6211 L 10467.965,1964.1113 V 1964.1113"
             style="opacity:1;fill:#bd9567;fill-opacity:1;stroke:none;stroke-width:1.00000012px;stroke-linecap:butt;stroke-linejoin:miter;stroke-opacity:1"
             inkscape:connector-curvature="0" />
        <path
             id="path869"
             d="M 11367.434,-4407.707 L 11234.643,-4409.7109 L 10993.775,-4413.6211 L 10739.184,-4418.2051 L 10474.648,-4423.6172 L 10203.951,-4430.0137 L 9930.8711,-4437.5488 L 9659.1895,-4446.3789 L 9392.6855,-4456.6602 L 9262.5586,-4462.3926 L 9135.1426,-4468.5449 L 9010.9121,-4475.1387 L 8890.3398,-4482.1914 L 8773.8965,-4489.7246 L 8662.0586,-4497.7559 L 8226.5371,-4531.0742 L 8011.6016,-4547.123 L 7799.7188,-4562.1133 L 7591.7734,-4575.5488 L 7489.5508,-4581.5293 L 7388.6445,-4586.9375 L 7289.1602,-4591.7109 L 7191.2109,-4595.7891 L 7094.9062,-4599.1094 L 7000.3574,-4601.6113 L 6907.6719,-4603.2324 L 6816.959,-4603.9121 L 6728.332,-4603.5879 L 6641.9004,-4602.1973 L 6557.7734,-4599.6836 L 6476.0605,-4595.9785 L 6396.873,-4591.0254 L 6320.3184,-4584.7617 L 6246.5098,-4577.125 L 6175.5566,-4568.0547 L 6107.5684,-4557.4902 L 6074.7207,-4551.627 L 6042.6562,-4545.3672 L 6011.3867,-4538.7031 L 5980.9277,-4531.627 L 5951.291,-4524.1289 L 5922.4941,-4516.2051 L 5894.5469,-4507.8457 L 5867.4648,-4499.043 L 5841.2637,-4489.7891 L 5815.9531,-4480.0781 L 5792.2129,-4469.543 L 5781.1719,-4463.8379 L 5770.6758,-4457.8477 L 5760.7188,-4451.5742 L 5751.2949,-4445.0215 L 5742.3984,-4438.1934 L 5734.0215,-4431.0918 L 5726.1602,-4423.7246 L 5718.8066,-4416.0938 L 5711.9551,-4408.2012 L 5705.6016,-4400.0527 L 5699.7383,-4391.6504 L 5694.3574,-4383 L 5689.457,-4374.1035 L 5685.0273,-4364.9648 L 5681.0645,-4355.5898 L 5677.5625,-4345.9805 L 5671.9121,-4326.0723 L 5668.0293,-4305.2734 L 5665.8652,-4283.6113 L 5665.3711,-4261.1191 L 5666.5,-4237.8242 L 5669.2012,-4213.7578 L 5673.4277,-4188.9473 L 5679.1289,-4163.4277 L 5686.2578,-4137.2246 L 5694.7656,-4110.3691 L 5704.6035,-4082.8906 L 5715.7246,-4054.8203 L 5728.0781,-4026.1875 L 5741.6172,-3997.0234 L 5756.291,-3967.3555 L 5772.0527,-3937.2148 L 5788.8535,-3906.6328 L 5806.6445,-3875.6387 L 5825.3789,-3844.2598 L 5845.0059,-3812.5293 L 5865.4766,-3780.4746 L 5908.7617,-3715.5176 L 5954.8418,-3649.6289 L 6003.3301,-3583.0469 L 6053.8379,-3516.0137 L 6105.9766,-3448.7656 L 6159.3594,-3381.543 L 6213.5977,-3314.5859 L 6268.3008,-3248.1328 L 6323.082,-3182.4258 L 6431.3223,-3054.2031 L 6535.2129,-2931.832 L 6631.6465,-2817.2285 L 6676.0957,-2763.4395 L 6717.5137,-2712.3105 L 6738.5703,-2687.1055 L 6761.9219,-2661.2305 L 6787.5117,-2634.7109 L 6815.2812,-2607.5742 L 6845.168,-2579.8477 L 6877.1133,-2551.5605 L 6911.0586,-2522.7383 L 6946.9434,-2493.4121 L 6984.7109,-2463.6035 L 7024.2969,-2433.3457 L 7065.6465,-2402.6621 L 7108.6973,-2371.584 L 7153.3906,-2340.1348 L 7199.668,-2308.3457 L 7247.4688,-2276.2422 L 7296.7344,-2243.8516 L 7347.4043,-2211.2031 L 7399.4199,-2178.3223 L 7507.248,-2111.9766 L 7619.7441,-2045.0371 L 7736.4316,-1977.7207 L 7856.8359,-1910.248 L 7980.4785,-1842.8418 L 8106.8867,-1775.7207 L 8235.584,-1709.1035 L 8366.0938,-1643.2109 L 8497.9395,-1578.2637 L 8630.6465,-1514.4824 L 8763.7383,-1452.0859 L 8896.7402,-1391.2949 L 9029.1758,-1332.3301 L 9160.5684,-1275.4102 L 9290.4434,-1220.7578 L 9418.3242,-1168.5898 L 9543.7363,-1119.127 L 9666.2012,-1072.5918 L 9785.2461,-1029.2031 L 9900.3926,-989.17969 L 9956.3574,-970.5 L 10011.168,-952.74414 L 10064.766,-935.93945 L 10117.092,-920.11328 L 10168.088,-905.29492 L 10217.693,-891.50977 L 10266.977,-877.45898 L 10317.01,-861.80664 L 10367.744,-844.5293 L 10419.127,-825.60742 L 10471.105,-805.01953 L 10523.631,-782.74219 L 10576.65,-758.75391 L 10630.113,-733.0332 L 10683.969,-705.55859 L 10738.164,-676.30664 L 10792.648,-645.25781 L 10847.369,-612.38867 L 10902.277,-577.67773 L 10957.318,-541.10156 L 11012.445,-502.64258 L 11067.602,-462.27539 L 11122.74,-419.97852 L 11177.807,-375.73047 L 11232.752,-329.50977 L 11287.523,-281.29492 L 11342.07,-231.0625 L 11344.953,-228.28711 L 11366.236,-292.3418 L 11497.711,-730.32812 L 11589.607,-1067.2012 L 11661.174,-1359.9863 L 11663.824,-1533.2734 L 11659.246,-1994.5801 L 11628.645,-2656.0703 L 11597.711,-3034.4355 L 11553.223,-3429.9082 L 11492.832,-3831.5098 L 11414.188,-4228.2578 L 11367.434,-4407.707 V -4407.707"
             style="opacity:1;fill:#bd9567;fill-opacity:1;stroke:none;stroke-width:1.00000012px;stroke-linecap:butt;stroke-linejoin:miter;stroke-opacity:1"
             class="terrain"
             inkscape:connector-curvature="0" />
        <path
             id="path867"
             d="M 10438.453,-5886.7422 L 10433.363,-5884.6973 L 10384.777,-5865.8809 L 10334.705,-5847.2383 L 10283.084,-5828.8008 L 10229.846,-5810.5977 L 10174.924,-5792.6621 L 10118.254,-5775.0195 L 10059.768,-5757.7051 L 9999.3984,-5740.7461 L 9937.0801,-5724.1738 L 9872.748,-5708.0195 L 9806.334,-5692.3125 L 9737.7715,-5677.084 L 9666.9961,-5662.3613 L 9593.9395,-5648.1797 L 9518.5371,-5634.5664 L 9440.7207,-5621.5508 L 9360.4258,-5609.166 L 9277.584,-5597.4414 L 9192.1309,-5586.4062 L 9104,-5576.0938 L 9014.2656,-5566.4062 L 8924.0801,-5557.2285 L 8833.4766,-5548.5508 L 8742.4961,-5540.3613 L 8559.5527,-5525.418 L 8375.5547,-5512.3223 L 8190.8066,-5501 L 8005.6094,-5491.377 L 7820.2715,-5483.3789 L 7635.0957,-5476.9316 L 7450.3848,-5471.9609 L 7266.4453,-5468.3906 L 7083.5801,-5466.1484 L 6902.0938,-5465.1582 L 6722.291,-5465.3477 L 6544.4746,-5466.6387 L 6368.9512,-5468.9609 L 6196.0234,-5472.2363 L 6025.9941,-5476.3926 L 5859.1719,-5481.3555 L 5695.8574,-5487.0508 L 5536.3555,-5493.4004 L 5380.9707,-5500.3359 L 5230.0098,-5507.7773 L 5083.7715,-5515.6523 L 4942.5664,-5523.8887 L 4806.6934,-5532.4082 L 4676.459,-5541.1387 L 4552.1699,-5550.0059 L 4434.125,-5558.9336 L 4217.998,-5576.6758 L 4030.5078,-5593.7695 L 3945.7461,-5602.2188 L 3863.6758,-5611.0215 L 3784.0918,-5620.2168 L 3706.7871,-5629.8516 L 3631.5527,-5639.9629 L 3558.1836,-5650.5977 L 3486.4707,-5661.7949 L 3416.209,-5673.5957 L 3347.1914,-5686.0449 L 3279.207,-5699.1855 L 3212.0527,-5713.0547 L 3145.5195,-5727.6992 L 3079.4023,-5743.1602 L 3013.4902,-5759.4766 L 2947.5781,-5776.6953 L 2881.4609,-5794.8535 L 2814.9277,-5813.998 L 2747.7734,-5834.166 L 2679.7891,-5855.4043 L 2610.7715,-5877.752 L 2540.5098,-5901.252 L 2468.7969,-5925.9473 L 2395.4277,-5951.8789 L 2320.1934,-5979.0879 L 2163.3047,-6037.5117 L 1996.4727,-6101.5547 L 1818.0371,-6171.5527 L 1626.3457,-6247.8438 L 1601.1484,-6257.5371 L 1575.2852,-6266.7285 L 1548.7695,-6275.4238 L 1521.6133,-6283.6289 L 1493.8301,-6291.3457 L 1465.4355,-6298.582 L 1436.4414,-6305.3418 L 1406.8594,-6311.6289 L 1376.7051,-6317.4453 L 1345.9922,-6322.8008 L 1314.7324,-6327.6953 L 1282.9395,-6332.1367 L 1250.627,-6336.1289 L 1217.8086,-6339.6758 L 1150.7051,-6345.4512 L 1081.7383,-6349.502 L 1011.0156,-6351.8633 L 938.64062,-6352.5742 L 864.7207,-6351.6699 L 789.36523,-6349.1875 L 712.67773,-6345.1641 L 634.76758,-6339.6367 L 555.74219,-6332.6426 L 475.70508,-6324.2148 L 394.76562,-6314.3965 L 313.0293,-6303.2188 L 230.60352,-6290.7227 L 147.5957,-6276.9414 L 64.111328,-6261.9141 L -19.740234,-6245.6777 L -103.85547,-6228.2676 L -188.12695,-6209.7207 L -272.44531,-6190.0762 L -356.70703,-6169.3691 L -440.80273,-6147.6348 L -524.62695,-6124.9121 L -608.07031,-6101.2383 L -691.03125,-6076.6484 L -773.39844,-6051.1797 L -855.06641,-6024.8711 L -935.92773,-5997.7559 L -1015.877,-5969.873 L -1094.8066,-5941.2598 L -1172.6094,-5911.9531 L -1249.1797,-5881.9863 L -1324.4102,-5851.4004 L -1398.1934,-5820.2305 L -1470.4219,-5788.5137 L -1540.9902,-5756.2871 L -1609.793,-5723.5859 L -1676.7207,-5690.4492 L -1741.666,-5656.9121 L -1804.5254,-5623.0137 L -1865.1895,-5588.7871 L -1923.5508,-5554.2715 L -1979.5059,-5519.5039 L -2032.9453,-5484.5215 L -2083.7617,-5449.3594 L -2131.8516,-5414.0547 L -2177.1035,-5378.6445 L -2219.4141,-5343.168 L -2239.4336,-5325.4141 L -2258.6758,-5307.6582 L -2277.1309,-5289.9023 L -2294.7832,-5272.1543 L -2311.6191,-5254.416 L -2327.625,-5236.6914 L -2342.7891,-5218.9883 L -2357.0996,-5201.3086 L -2370.5391,-5183.6582 L -2383.0957,-5166.041 L -2394.7578,-5148.4629 L -2405.5098,-5130.9277 L -2415.3398,-5113.4375 L -2424.2324,-5096.002 L -2432.1777,-5078.6211 L -2439.1602,-5061.3027 L -2445.166,-5044.0488 L -2450.1836,-5026.8652 L -2454.1973,-5009.7578 L -2457.1953,-4992.7305 L -2480.9121,-4824.377 L -2495.2852,-4717.3359 L -2511.0234,-4596.3633 L -2527.8867,-4462.4434 L -2545.6406,-4316.5586 L -2564.0488,-4159.6953 L -2582.873,-3992.8359 L -2601.8789,-3816.9668 L -2620.8301,-3633.0684 L -2639.4902,-3442.127 L -2657.623,-3245.127 L -2674.9922,-3043.0508 L -2691.3613,-2836.8828 L -2706.4922,-2627.6074 L -2720.1504,-2416.209 L -2732.1016,-2203.6719 L -2737.3613,-2097.2832 L -2742.1055,-1990.9785 L -2746.3047,-1884.8809 L -2749.9297,-1779.1133 L -2752.9492,-1673.8008 L -2755.334,-1569.0625 L -2757.0566,-1465.0234 L -2758.084,-1361.8066 L -2758.3906,-1259.5352 L -2757.9453,-1158.332 L -2756.7168,-1058.3203 L -2754.6777,-959.62305 L -2751.7988,-862.36328 L -2748.0488,-766.66211 L -2743.3984,-672.64453 L -2737.8203,-580.43359 L -2731.2812,-490.15234 L -2723.7559,-401.92188 L -2715.2109,-315.86719 L -2705.6191,-232.11133 L -2694.9492,-150.77539 L -2683.1738,-71.984375 L -2670.2617,4.1386719 L -2656.1836,77.472656 L -2640.9102,147.89258 L -2624.4121,215.27734 L -2615.6953,247.79297 L -2606.6621,279.50195 L -2597.3047,310.39258 L -2587.625,340.44531 L -2577.6172,369.64648 L -2567.2754,397.98242 L -2556.5996,425.43555 L -2545.584,451.99219 L -2534.2988,477.36523 L -2522.8164,501.29297 L -2511.1426,523.79297 L -2499.2832,544.87891 L -2487.2422,564.57227 L -2475.0254,582.88867 L -2462.6348,599.8457 L -2450.0801,615.45898 L -2437.3613,629.74609 L -2424.4844,642.72656 L -2411.4551,654.41602 L -2398.2793,664.83008 L -2384.959,673.98828 L -2371.502,681.90625 L -2357.9102,688.60156 L -2344.1895,694.09375 L -2330.3457,698.39648 L -2316.3828,701.5293 L -2302.3066,703.50781 L -2288.1211,704.34961 L -2273.8301,704.07422 L -2259.4395,702.69531 L -2244.9531,700.23047 L -2230.377,696.70117 L -2215.7168,692.11914 L -2200.9746,686.50391 L -2186.1562,679.87305 L -2171.2676,672.24414 L -2156.3125,663.63281 L -2141.2969,654.05859 L -2126.2246,643.53516 L -2111.0996,632.08398 L -2095.9297,619.71875 L -2080.7148,606.45703 L -2065.4648,592.31836 L -2050.1816,577.31836 L -2034.8711,561.47266 L -2019.5371,544.80273 L -2004.1855,527.32031 L -1988.8203,509.04688 L -1958.0684,470.19336 L -1927.3223,428.37305 L -1896.6172,383.72852 L -1865.9961,336.39648 L -1835.4922,286.51367 L -1805.1484,234.2168 L -1775,179.64453 L -1745.0879,122.93555 L -1715.4473,64.224609 L -1686.1211,3.6523438 L -1657.1426,-58.646484 L -1628.5547,-122.53125 L -1600.3945,-187.86719 L -1572.6992,-254.51758 L -1545.5078,-322.33984 L -1518.8594,-391.20117 L -1492.793,-460.96289 L -1467.3438,-531.48633 L -1442.5547,-602.63281 L -1418.4609,-674.26953 L -1395.1016,-746.25391 L -1372.5156,-818.44922 L -1350.7422,-890.7207 L -1329.8164,-962.92969 L -1309.7812,-1034.9355 L -1290.6738,-1106.6055 L -1272.5293,-1177.7988 L -1255.3906,-1248.3789 L -1239.293,-1318.207 L -1224.2773,-1387.1484 L -1210.3809,-1455.0625 L -1197.6406,-1521.8125 L -1186.0977,-1587.2617 L -1175.7871,-1651.2734 L -1166.752,-1713.707 L -1159.0273,-1774.4277 L -1152.6523,-1833.2969 L -1147.6641,-1890.1758 L -1144.1055,-1944.9297 L -1142.0098,-1997.418 L -1141.418,-2047.5059 L -1142.3672,-2095.0527 L -1144.8984,-2139.9238 L -1149.0488,-2181.9805 L -1154.4531,-2223.1699 L -1160.7012,-2265.498 L -1167.75,-2308.9062 L -1175.5605,-2353.3457 L -1184.0957,-2398.7578 L -1193.3145,-2445.0898 L -1213.6484,-2540.2988 L -1236.248,-2638.5371 L -1260.7988,-2739.3711 L -1286.9883,-2842.3672 L -1314.5,-2947.0918 L -1343.0234,-3053.1113 L -1372.2422,-3159.9922 L -1431.5117,-3374.6016 L -1489.7969,-3587.4492 L -1517.7852,-3692.1289 L -1544.5859,-3795.0684 L -1569.8848,-3895.8301 L -1593.3691,-3993.9844 L -1614.7207,-4089.0957 L -1633.6309,-4180.7305 L -1642.0703,-4225.1094 L -1649.7812,-4268.4551 L -1656.7246,-4310.7168 L -1662.8613,-4351.8359 L -1668.1523,-4391.7617 L -1672.5566,-4430.4395 L -1676.0352,-4467.8145 L -1678.5508,-4503.832 L -1680.0605,-4538.4375 L -1680.5312,-4571.5781 L -1679.918,-4603.1992 L -1678.1836,-4633.2461 L -1675.2891,-4661.666 L -1671.1934,-4688.4023 L -1665.8613,-4713.4023 L -1659.25,-4736.6113 L -1651.3203,-4757.9746 L -1646.8496,-4767.9473 L -1642.0352,-4777.4395 L -1636.8711,-4786.4434 L -1631.3535,-4794.9512 L -1625.4766,-4802.957 L -1619.2363,-4810.4551 L -1612.6289,-4817.4375 L -1605.6465,-4823.8965 L -1598.2852,-4829.8281 L -1590.541,-4835.2227 L -1582.4102,-4840.0742 L -1573.8848,-4844.377 L -1564.9609,-4848.125 L -1555.6348,-4851.3086 L -1536.0527,-4856.5176 L -1515.4492,-4860.5566 L -1493.8672,-4863.4473 L -1471.3457,-4865.2148 L -1447.9297,-4865.877 L -1423.6582,-4865.457 L -1398.5723,-4863.9766 L -1372.7129,-4861.459 L -1346.1211,-4857.9258 L -1318.8418,-4853.3965 L -1290.9121,-4847.8945 L -1262.373,-4841.4414 L -1233.2695,-4834.0605 L -1203.6406,-4825.7734 L -1173.5273,-4816.5996 L -1142.9727,-4806.5625 L -1112.0156,-4795.6836 L -1080.6973,-4783.9844 L -1049.0605,-4771.4883 L -1017.1484,-4758.2148 L -984.99805,-4744.1895 L -952.65234,-4729.4297 L -920.1543,-4713.9609 L -887.54297,-4697.8027 L -854.86133,-4680.9785 L -822.14844,-4663.5078 L -789.44727,-4645.4141 L -756.79883,-4626.7207 L -724.24414,-4607.4473 L -691.82617,-4587.6152 L -659.58203,-4567.25 L -627.55664,-4546.3691 L -595.79102,-4524.9961 L -564.32422,-4503.1523 L -533.20117,-4480.8613 L -502.45898,-4458.1445 L -472.14062,-4435.0215 L -442.28711,-4411.5176 L -412.94141,-4387.6504 L -384.14453,-4363.4453 L -355.93555,-4338.9238 L -328.35547,-4314.1055 L -301.44922,-4289.0156 L -275.25586,-4263.6719 L -249.81641,-4238.0996 L -225.17188,-4212.3203 L -201.36328,-4186.3535 L -178.43359,-4160.2227 L -156.42383,-4133.9492 L -135.37305,-4107.5547 L -115.32617,-4081.0625 L -96.320312,-4054.4922 L -78.400391,-4027.8672 L -61.605469,-4001.2109 L -45.976562,-3974.541 L -31.556641,-3947.8828 L -18.386719,-3921.2559 L -6.5078125,-3894.6855 L 4.0410156,-3868.1895 L 13.214844,-3841.791 L 20.974609,-3815.5137 L 27.279297,-3789.377 L 32.085938,-3763.4023 L 35.355469,-3737.6152 L 37.40625,-3709.9941 L 38.605469,-3678.5957 L 38.982422,-3643.5527 L 38.566406,-3604.998 L 37.386719,-3563.0645 L 35.472656,-3517.8828 L 32.851562,-3469.5879 L 29.554688,-3418.3125 L 21.048828,-3307.3477 L 10.185547,-3186.0508 L -2.8007812,-3055.4844 L -17.677734,-2916.709 L -34.210938,-2770.7852 L -52.169922,-2618.7773 L -91.425781,-2300.752 L -133.58398,-1971.125 L -176.77734,-1638.3926 L -219.14062,-1311.0449 L -258.8125,-997.57617 L -277.05469,-848.70117 L -293.92578,-706.48242 L -309.19141,-571.97852 L -322.61719,-446.25391 L -333.97266,-330.36914 L -343.02344,-225.38672 L -349.53516,-132.36719 L -351.76758,-90.675781 L -353.27734,-52.373047 L -354.03711,-17.59375 L -354.01562,13.533203 L -353.18555,40.873047 L -351.51562,64.291016 L -348.98047,83.658203 L -345.54688,98.839844 L -343.48633,104.82031 L -341.18945,109.70312 L -338.6543,113.47461 L -335.875,116.11719 L -330.04883,120.92773 L -324.16797,127.05469 L -318.23047,134.46875 L -312.23438,143.13867 L -306.17578,153.03125 L -300.05273,164.12109 L -287.60742,189.76172 L -274.87695,219.81836 L -261.8418,254.04688 L -248.48242,292.20508 L -234.78125,334.04883 L -220.7168,379.33789 L -206.27148,427.82812 L -176.1543,533.44141 L -110.48633,772.40039 L -74.621094,901.86133 L -36.529297,1035.3906 L -16.599609,1103.0723 L 3.9453125,1171.041 L 25.123047,1239.0566 L 46.957031,1306.873 L 69.462891,1374.25 L 92.660156,1440.9453 L 116.57227,1506.7129 L 141.21484,1571.3125 L 166.60742,1634.502 L 192.77148,1696.0371 L 219.72461,1755.6738 L 247.48828,1813.1719 L 261.45703,1842.5234 L 275.19531,1874.168 L 288.70117,1908.0176 L 301.97461,1943.9863 L 315.01758,1981.9824 L 327.82812,2021.9219 L 340.4082,2063.7148 L 352.75977,2107.2715 L 364.87891,2152.5039 L 376.77148,2199.3262 L 388.43359,2247.6484 L 399.86719,2297.3848 L 422.04883,2400.7363 L 443.32227,2508.6777 L 463.68945,2620.5059 L 483.1543,2735.5098 L 501.7168,2852.9883 L 519.38477,2972.2344 L 536.1582,3092.541 L 552.04297,3213.2051 L 567.03906,3333.5176 L 581.1543,3452.7773 L 594.38672,3570.2734 L 606.74219,3685.3047 L 618.22461,3797.1641 L 628.83398,3905.1445 L 647.45703,4106.6523 L 662.63672,4284.1797 L 674.39648,4432.084 L 682.76562,4544.7188 L 689.42969,4641.5996 L 688.24609,4660.5469 L 685.76953,4713.623 L 684.54688,4751.1953 L 683.60352,4795.1836 L 683.13672,4844.8809 L 683.35156,4899.584 L 684.44727,4958.584 L 686.62305,5021.1777 L 690.08203,5086.6582 L 695.02148,5154.3203 L 701.64648,5223.459 L 710.1543,5293.3691 L 715.17578,5328.3926 L 720.74609,5363.3418 L 726.88672,5398.1328 L 733.62305,5432.6758 L 740.98242,5466.8809 L 748.98633,5500.6621 L 757.66406,5533.9297 L 767.03711,5566.5957 L 777.13086,5598.5723 L 781.78711,5611.9707 L 927.75195,5438.0723 L 1368.1699,4900.0371 L 1557.002,4690.0195 L 1727.2637,4516.4805 L 1880.7207,4377.2852 L 2019.1309,4270.2949 L 2144.2578,4193.3691 L 2257.8633,4144.3711 L 2287.7109,4137.7012 L 2274.8223,4129.5625 L 2232.0723,4104.2441 L 2187.8301,4079.5664 L 2142.3555,4054.9121 L 2095.9121,4029.668 L 2048.7617,4003.2168 L 2001.168,3974.9434 L 1977.2852,3959.9316 L 1953.3906,3944.2344 L 1929.5156,3927.7715 L 1905.6934,3910.4688 L 1881.957,3892.25 L 1858.3398,3873.0371 L 1834.873,3852.752 L 1811.5898,3831.3184 L 1788.5234,3808.6621 L 1765.707,3784.7012 L 1743.1719,3759.3633 L 1720.9512,3732.5684 L 1699.0801,3704.2402 L 1677.5879,3674.3027 L 1656.5098,3642.6797 L 1635.877,3609.291 L 1615.7246,3574.0625 L 1596.084,3536.918 L 1576.9863,3497.7773 L 1558.4668,3456.5645 L 1540.5566,3413.2031 L 1523.2891,3367.6172 L 1506.6973,3319.7285 L 1490.8145,3269.4609 L 1475.6719,3216.7383 L 1461.3047,3161.4805 L 1447.7422,3103.6133 L 1435.0215,3043.0586 L 1423.1719,2979.7402 L 1412.2266,2913.5801 L 1402.2188,2844.502 L 1393.1816,2772.4297 L 1385.1484,2697.2852 L 1378.1523,2618.9922 L 1372.2246,2537.4727 L 1367.3984,2452.6523 L 1363.7051,2364.4512 L 1361.1797,2272.793 L 1358.7852,2180.4258 L 1355.4805,2090.1172 L 1351.2969,2001.8164 L 1346.2676,1915.4688 L 1340.4238,1831.0273 L 1333.7949,1748.4355 L 1326.416,1667.6445 L 1318.3184,1588.6035 L 1309.5293,1511.2598 L 1300.0859,1435.5625 L 1290.0156,1361.4609 L 1279.3516,1288.9004 L 1268.125,1217.834 L 1256.3691,1148.2051 L 1244.1113,1079.9668 L 1231.3887,1013.0664 L 1218.2285,947.45312 L 1204.6641,883.07227 L 1190.7285,819.875 L 1176.4492,757.80859 L 1161.8613,696.82422 L 1146.9941,636.86719 L 1116.5547,519.83398 L 1085.3789,406.29688 L 1053.7227,295.84766 L 1021.8359,188.07031 L 989.97461,82.554688 L 927.33203,-123.33398 L 897.05469,-224.5332 L 867.8125,-325.11523 L 839.85547,-425.49609 L 813.4375,-526.08398 L 800.88281,-576.58398 L 788.80859,-627.29102 L 777.24609,-678.25586 L 766.22656,-729.5293 L 755.7793,-781.16406 L 745.93945,-833.21094 L 736.73438,-885.7207 L 728.19922,-938.74805 L 720.36523,-992.33984 L 713.26172,-1046.5508 L 706.92188,-1101.4297 L 701.37891,-1157.0312 L 696.66016,-1213.4062 L 692.80078,-1270.6035 L 689.83008,-1328.6758 L 687.78125,-1387.6758 L 686.68555,-1447.6543 L 686.57422,-1508.6621 L 687.47656,-1570.75 L 689.42969,-1633.9727 L 693.36133,-1759.2715 L 695.40234,-1880.0137 L 695.83789,-1996.3105 L 694.95312,-2108.2656 L 693.0332,-2215.9883 L 690.36133,-2319.582 L 683.9043,-2514.8184 L 677.86328,-2694.8262 L 675.70898,-2779.3887 L 674.51367,-2860.4648 L 674.56055,-2938.1602 L 676.13672,-3012.584 L 677.58594,-3048.6035 L 679.52344,-3083.8438 L 681.98633,-3118.3184 L 685.00977,-3152.043 L 688.62891,-3185.0293 L 692.87695,-3217.2891 L 697.79297,-3248.8398 L 703.41211,-3279.6914 L 709.76953,-3309.8594 L 716.89844,-3339.3555 L 724.83984,-3368.1934 L 733.62305,-3396.3887 L 743.28711,-3423.9512 L 753.86914,-3450.8945 L 765.40039,-3477.2363 L 777.92188,-3502.9844 L 791.46289,-3528.1562 L 806.06445,-3552.7637 L 821.75977,-3576.8184 L 838.58398,-3600.3379 L 856.57422,-3623.3301 L 875.76562,-3645.8145 L 896.19336,-3667.7988 L 917.89258,-3689.2988 L 940.89844,-3710.3301 L 965.25,-3730.9023 L 990.97852,-3751.0293 L 1018.123,-3770.7266 L 1046.7168,-3790.0059 L 1076.7969,-3808.8809 L 1108.3984,-3827.3652 L 1141.5566,-3845.4727 L 1176.3066,-3863.2148 L 1212.6855,-3880.6074 L 1250.7285,-3897.6621 L 1290.4707,-3914.3926 L 1331.7617,-3930.9199 L 1374.3887,-3947.334 L 1418.2891,-3963.5996 L 1463.3965,-3979.6816 L 1509.6504,-3995.543 L 1556.9883,-4011.1484 L 1605.3438,-4026.4629 L 1654.6582,-4041.4492 L 1704.8633,-4056.0742 L 1755.9004,-4070.3008 L 1807.7051,-4084.0938 L 1860.2129,-4097.418 L 1913.3613,-4110.2363 L 1967.0879,-4122.5137 L 2021.3281,-4134.2168 L 2076.0215,-4145.3066 L 2131.1016,-4155.75 L 2186.5098,-4165.5098 L 2242.1777,-4174.5508 L 2298.0449,-4182.8379 L 2354.0488,-4190.334 L 2410.125,-4197.0059 L 2466.2109,-4202.8164 L 2522.2441,-4207.7305 L 2578.1602,-4211.7129 L 2633.8965,-4214.7266 L 2689.3906,-4216.7383 L 2744.5781,-4217.709 L 2799.3984,-4217.6055 L 2853.7852,-4216.3926 L 2907.6758,-4214.0332 L 2961.0098,-4210.4922 L 3013.7207,-4205.7344 L 3065.748,-4199.7246 L 3117.0273,-4192.4258 L 3167.4961,-4183.8047 L 3217.0918,-4173.8223 L 3265.748,-4162.4453 L 3313.4062,-4149.6367 L 3360,-4135.3633 L 3405.4668,-4119.5859 L 3449.7461,-4102.2734 L 3492.7715,-4083.3867 L 3513.7949,-4073.3418 L 3534.4805,-4062.8906 L 3554.8223,-4052.0293 L 3574.8105,-4040.752 L 3594.4395,-4029.0547 L 3613.6992,-4016.9316 L 3632.584,-4004.3809 L 3651.084,-3991.3965 L 3669.1914,-3977.9746 L 3686.8984,-3964.1113 L 3704.1992,-3949.7988 L 3721.082,-3935.0371 L 3737.543,-3919.8203 L 3753.5723,-3904.1426 L 3769.1621,-3888 L 3784.3047,-3871.3887 L 3798.9902,-3854.3047 L 3813.2148,-3836.7422 L 3826.9668,-3818.6973 L 3840.2422,-3800.166 L 3853.0293,-3781.1426 L 3865.3223,-3761.625 L 3877.1113,-3741.6055 L 3888.3926,-3721.082 L 3899.1543,-3700.0508 L 3909.3887,-3678.5059 L 3919.0898,-3656.4414 L 3928.25,-3633.8574 L 3936.8594,-3610.7441 L 3944.9102,-3587.0996 L 3952.3965,-3562.9219 L 3959.3086,-3538.2012 L 3965.6406,-3512.9375 L 3971.3809,-3487.125 L 3976.5254,-3460.7578 L 3981.0645,-3433.832 L 3984.9922,-3406.3457 L 3988.2969,-3378.291 L 3990.9746,-3349.666 L 3993.0137,-3320.4648 L 3994.4102,-3290.6836 L 3995.1523,-3260.3184 L 3995.4648,-3199.168 L 3994.7949,-3138.3633 L 3993.2246,-3077.9082 L 3990.8379,-3017.8105 L 3987.7109,-2958.0801 L 3983.9277,-2898.7227 L 3979.5684,-2839.7461 L 3974.7129,-2781.1562 L 3963.8418,-2665.1699 L 3951.9609,-2550.8203 L 3927.7578,-2327.2695 L 3916.7305,-2218.1836 L 3907.2832,-2110.9668 L 3903.3535,-2058.0801 L 3900.0625,-2005.6816 L 3897.4902,-1953.7812 L 3895.7168,-1902.3828 L 3894.8242,-1851.498 L 3894.8926,-1801.1309 L 3896.002,-1751.2891 L 3898.2363,-1701.9824 L 3901.6758,-1653.2148 L 3906.3984,-1604.9941 L 3912.4863,-1557.3301 L 3920.0234,-1510.2285 L 3929.0859,-1463.6973 L 3939.7598,-1417.7422 L 3952.1211,-1372.3711 L 3966.2539,-1327.5918 L 3982.2383,-1283.4102 L 3990.9512,-1261.5469 L 4000.1543,-1239.8359 L 4009.8633,-1218.2793 L 4020.0859,-1196.875 L 4030.8301,-1175.627 L 4042.1094,-1154.5352 L 4053.9316,-1133.5996 L 4066.3086,-1112.8223 L 4079.25,-1092.2031 L 4092.7637,-1071.7461 L 4106.8633,-1051.4473 L 4121.5566,-1031.3105 L 4136.8555,-1011.3359 L 4152.7676,-991.52539 L 4169.3047,-971.87891 L 4186.4766,-952.39844 L 4204.2949,-933.08203 L 4222.7656,-913.93359 L 4241.9043,-894.95508 L 4261.7168,-876.14258 L 4282.2148,-857.50195 L 4303.4082,-839.0293 L 4325.3066,-820.73047 L 4347.9219,-802.60352 L 4371.2617,-784.65039 L 4395.3398,-766.87109 L 4420.1621,-749.26562 L 4445.7402,-731.83789 L 4472.0859,-714.58594 L 4499.209,-697.51367 L 4527.1172,-680.61914 L 4555.8223,-663.9043 L 4585.334,-647.37109 L 4615.6621,-631.01758 L 4646.8184,-614.84766 L 4678.8105,-598.86133 L 4711.6523,-583.06055 L 4745.3496,-567.44336 L 4779.9141,-552.01172 L 4815.3574,-536.76758 L 4851.6875,-521.71289 L 4888.916,-506.8457 L 4927.0508,-492.16797 L 4966.1055,-477.68164 L 5047.0098,-449.2832 L 5131.7051,-421.66016 L 5220.2773,-394.81641 L 5312.8027,-368.76172 L 5409.3672,-343.50195 L 5805.9844,-242.99219 L 6005.3574,-191.88672 L 6204.9316,-140.17578 L 6404.3242,-87.830078 L 6603.1523,-34.820312 L 6801.0371,18.880859 L 6997.5938,73.302734 L 7192.4434,128.47852 L 7385.1992,184.43164 L 7575.4844,241.19531 L 7762.9141,298.79688 L 7947.1055,357.26758 L 8037.8691,386.83594 L 8127.6797,416.63281 L 8216.4902,446.66016 L 8304.252,476.92383 L 8390.918,507.42578 L 8476.4414,538.17188 L 8560.7734,569.16211 L 8643.8672,600.40234 L 8725.6738,631.89453 L 8806.1465,663.64453 L 8885.2363,695.65625 L 8962.8965,727.93164 L 9039.0781,760.47461 L 9113.7363,793.28906 L 9186.8203,826.37891 L 9258.2832,859.74609 L 9328.0781,893.39648 L 9396.1562,927.33398 L 9462.4707,961.56055 L 9526.9727,996.08008 L 9589.6152,1030.8984 L 9650.3496,1066.0156 L 9709.1309,1101.4375 L 9765.9082,1137.166 L 9820.6348,1173.207 L 9873.2637,1209.5645 L 9923.7461,1246.2402 L 9972.0352,1283.2363 L 10018.082,1320.5605 L 10061.84,1358.2148 L 10103.26,1396.2012 L 10142.297,1434.5254 L 10160.904,1453.8145 L 10178.9,1473.1895 L 10196.275,1492.6523 L 10213.023,1512.1992 L 10229.141,1531.834 L 10244.619,1551.5566 L 10259.453,1571.3672 L 10273.639,1591.2656 L 10287.168,1611.252 L 10300.033,1631.3281 L 10312.234,1651.4941 L 10323.76,1671.752 L 10347.117,1715.3359 L 10372.398,1764.6953 L 10399.533,1819.5391 L 10428.449,1879.5801 L 10467.965,1964.1113 L 10718.078,1434.2383 L 10978.047,809.3457 L 11193.557,227.35156 L 11344.953,-228.28711 L 11342.07,-231.0625 L 11287.523,-281.29492 L 11232.752,-329.50977 L 11177.807,-375.73047 L 11122.74,-419.97852 L 11067.602,-462.27539 L 11012.445,-502.64258 L 10957.318,-541.10156 L 10902.277,-577.67773 L 10847.369,-612.38867 L 10792.648,-645.25781 L 10738.164,-676.30664 L 10683.969,-705.55859 L 10630.113,-733.0332 L 10576.65,-758.75391 L 10523.631,-782.74219 L 10471.105,-805.01953 L 10419.127,-825.60742 L 10367.744,-844.5293 L 10317.01,-861.80664 L 10266.977,-877.45898 L 10217.693,-891.50977 L 10168.088,-905.29492 L 10117.092,-920.11328 L 10064.766,-935.93945 L 10011.168,-952.74414 L 9956.3574,-970.5 L 9900.3926,-989.17969 L 9785.2461,-1029.2031 L 9666.2012,-1072.5918 L 9543.7363,-1119.127 L 9418.3242,-1168.5898 L 9290.4434,-1220.7578 L 9160.5684,-1275.4102 L 9029.1758,-1332.3301 L 8896.7402,-1391.2949 L 8763.7383,-1452.0859 L 8630.6465,-1514.4824 L 8497.9395,-1578.2637 L 8366.0938,-1643.2109 L 8235.584,-1709.1035 L 8106.8867,-1775.7207 L 7980.4785,-1842.8418 L 7856.8359,-1910.248 L 7736.4316,-1977.7207 L 7619.7441,-2045.0371 L 7507.248,-2111.9766 L 7399.4199,-2178.3223 L 7347.4043,-2211.2031 L 7296.7344,-2243.8516 L 7247.4688,-2276.2422 L 7199.668,-2308.3457 L 7153.3906,-2340.1348 L 7108.6973,-2371.584 L 7065.6465,-2402.6621 L 7024.2969,-2433.3457 L 6984.7109,-2463.6035 L 6946.9434,-2493.4121 L 6911.0586,-2522.7383 L 6877.1133,-2551.5605 L 6845.168,-2579.8477 L 6815.2812,-2607.5742 L 6787.5117,-2634.7109 L 6761.9219,-2661.2305 L 6738.5703,-2687.1055 L 6717.5137,-2712.3105 L 6676.0957,-2763.4395 L 6631.6465,-2817.2285 L 6535.2129,-2931.832 L 6431.3223,-3054.2031 L 6323.082,-3182.4258 L 6268.3008,-3248.1328 L 6213.5977,-3314.5859 L 6159.3594,-3381.543 L 6105.9766,-3448.7656 L 6053.8379,-3516.0137 L 6003.3301,-3583.0469 L 5954.8418,-3649.6289 L 5908.7617,-3715.5176 L 5865.4766,-3780.4746 L 5845.0059,-3812.5293 L 5825.3789,-3844.2598 L 5806.6445,-3875.6387 L 5788.8535,-3906.6328 L 5772.0527,-3937.2148 L 5756.291,-3967.3555 L 5741.6172,-3997.0234 L 5728.0781,-4026.1875 L 5715.7246,-4054.8203 L 5704.6035,-4082.8906 L 5694.7656,-4110.3691 L 5686.2578,-4137.2246 L 5679.1289,-4163.4277 L 5673.4277,-4188.9473 L 5669.2012,-4213.7578 L 5666.5,-4237.8242 L 5665.3711,-4261.1191 L 5665.8652,-4283.6113 L 5668.0293,-4305.2734 L 5671.9121,-4326.0723 L 5677.5625,-4345.9805 L 5681.0645,-4355.5898 L 5685.0273,-4364.9648 L 5689.457,-4374.1035 L 5694.3574,-4383 L 5699.7383,-4391.6504 L 5705.6016,-4400.0527 L 5711.9551,-4408.2012 L 5718.8066,-4416.0938 L 5726.1602,-4423.7246 L 5734.0215,-4431.0918 L 5742.3984,-4438.1934 L 5751.2949,-4445.0215 L 5760.7188,-4451.5742 L 5770.6758,-4457.8477 L 5781.1719,-4463.8379 L 5792.2129,-4469.543 L 5815.9531,-4480.0781 L 5841.2637,-4489.7891 L 5867.4648,-4499.043 L 5894.5469,-4507.8457 L 5922.4941,-4516.2051 L 5951.291,-4524.1289 L 5980.9277,-4531.627 L 6011.3867,-4538.7031 L 6042.6562,-4545.3672 L 6074.7207,-4551.627 L 6107.5684,-4557.4902 L 6175.5566,-4568.0547 L 6246.5098,-4577.125 L 6320.3184,-4584.7617 L 6396.873,-4591.0254 L 6476.0605,-4595.9785 L 6557.7734,-4599.6836 L 6641.9004,-4602.1973 L 6728.332,-4603.5879 L 6816.959,-4603.9121 L 6907.6719,-4603.2324 L 7000.3574,-4601.6113 L 7094.9062,-4599.1094 L 7191.2109,-4595.7891 L 7289.1602,-4591.7109 L 7388.6445,-4586.9375 L 7489.5508,-4581.5293 L 7591.7734,-4575.5488 L 7799.7188,-4562.1133 L 8011.6016,-4547.123 L 8226.5371,-4531.0742 L 8662.0586,-4497.7559 L 8773.8965,-4489.7246 L 8890.3398,-4482.1914 L 9010.9121,-4475.1387 L 9135.1426,-4468.5449 L 9262.5586,-4462.3926 L 9392.6855,-4456.6602 L 9659.1895,-4446.3789 L 9930.8711,-4437.5488 L 10203.951,-4430.0137 L 10474.648,-4423.6172 L 10739.184,-4418.2051 L 10993.775,-4413.6211 L 11234.643,-4409.7109 L 11367.434,-4407.707 L 11314.941,-4609.1758 L 11192.744,-4963.2852 L 11122.303,-5126.8535 L 11045.244,-5279.6035 L 10961.273,-5420.1602 L 10870.096,-5547.1523 L 10771.418,-5659.207 L 10664.945,-5754.9531 L 10550.387,-5833.0176 L 10438.453,-5886.7422 V -5886.7422"
             style="opacity:1;fill:#ffe680;fill-opacity:1;stroke:none;stroke-width:1.00000012px;stroke-linecap:butt;stroke-linejoin:miter;stroke-opacity:1"
             class="terrain"
             inkscape:connector-curvature="0" />
        <path
             id="path17"
             d="M 1205.3398,-7482.5977 L 237.45508,-7460.4258 L -644.76758,-7415.5293 L -1427.9551,-7355.8242 L -2098.7344,-7289.2227 L -3049.5703,-7167.002 L -3390.291,-7112.1914 L -3478.7246,-7099.2539 L -3704.5059,-7041.377 L -3850.3789,-6986.6504 L -4008.3594,-6909.9648 L -4171.0391,-6807.7461 L -4331.0078,-6676.418 L -4480.8574,-6512.4062 L -4613.1758,-6312.1387 L -4670.4453,-6197.291 L -4720.5547,-6072.0371 L -4762.5762,-5935.9336 L -4795.584,-5788.5293 L -4818.6523,-5629.3809 L -4830.8555,-5458.041 L -4831.2656,-5274.0605 L -4818.957,-5076.9941 L -4793.0039,-4866.3965 L -4752.4824,-4641.8164 L -4696.4609,-4402.8125 L -4624.0195,-4148.9336 L -4477.543,-3626.6875 L -4360.1641,-3108.5254 L -4269.1719,-2598.5352 L -4201.8535,-2100.8008 L -4155.498,-1619.4082 L -4127.3945,-1158.4414 L -4114.8359,-721.98828 L -4115.1055,-314.13086 L -4125.498,61.042969 L -4143.2988,399.44727 L -4190.2871,949.61133 L -4234.3828,1303.6758 L -4253.9004,1428.9609 L -4307.877,1712.2129 L -4357.9961,2017.2539 L -4408.1172,2387.6621 L -4446.6699,2790.752 L -4462.0918,3193.8418 L -4457.5137,3385.1738 L -4442.8145,3564.248 L -4416.5508,3726.9824 L -4377.2734,3869.2891 L -4305.4961,4038.1953 L -4184.7441,4272.7207 L -4018.0898,4556.7812 L -3808.6016,4874.291 L -3559.3574,5209.1641 L -3273.4258,5545.3145 L -2953.8789,5866.6543 L -2782.4609,6016.7441 L -2603.791,6157.0977 L -2418.2539,6285.707 L -2226.2324,6400.5605 L -2028.1133,6499.6465 L -1824.2773,6580.9551 L -1615.1113,6642.4746 L -1400.998,6682.1953 L -1182.3203,6698.1074 L -959.46484,6688.1973 L -732.8125,6650.4551 L -502.75,6582.8711 L -269.66211,6483.4336 L -33.927734,6350.1309 L 204.0625,6180.9551 L 443.92969,5973.8945 L 685.28711,5726.9375 L 781.78711,5611.9707 L 777.13086,5598.5723 L 767.03711,5566.5957 L 757.66406,5533.9297 L 748.98633,5500.6621 L 740.98242,5466.8809 L 733.62305,5432.6758 L 726.88672,5398.1328 L 720.74609,5363.3418 L 715.17578,5328.3926 L 710.1543,5293.3691 L 701.64648,5223.459 L 695.02148,5154.3203 L 690.08203,5086.6582 L 686.62305,5021.1777 L 684.44727,4958.584 L 683.35156,4899.584 L 683.13672,4844.8809 L 683.60352,4795.1836 L 684.54688,4751.1953 L 685.76953,4713.623 L 688.24609,4660.5469 L 689.42969,4641.5996 L 682.76562,4544.7188 L 674.39648,4432.084 L 662.63672,4284.1797 L 647.45703,4106.6523 L 628.83398,3905.1445 L 618.22461,3797.1641 L 606.74219,3685.3047 L 594.38672,3570.2734 L 581.1543,3452.7773 L 567.03906,3333.5176 L 552.04297,3213.2051 L 536.1582,3092.541 L 519.38477,2972.2344 L 501.7168,2852.9883 L 483.1543,2735.5098 L 463.68945,2620.5059 L 443.32227,2508.6777 L 422.04883,2400.7363 L 399.86719,2297.3848 L 388.43359,2247.6484 L 376.77148,2199.3262 L 364.87891,2152.5039 L 352.75977,2107.2715 L 340.4082,2063.7148 L 327.82812,2021.9219 L 315.01758,1981.9824 L 301.97461,1943.9863 L 288.70117,1908.0176 L 275.19531,1874.168 L 261.45703,1842.5234 L 247.48828,1813.1719 L 219.72461,1755.6738 L 192.77148,1696.0371 L 166.60742,1634.502 L 141.21484,1571.3125 L 116.57227,1506.7129 L 92.660156,1440.9453 L 69.462891,1374.25 L 46.957031,1306.873 L 25.123047,1239.0566 L 3.9453125,1171.041 L -16.599609,1103.0723 L -36.529297,1035.3906 L -74.621094,901.86133 L -110.48633,772.40039 L -176.1543,533.44141 L -206.27148,427.82812 L -220.7168,379.33789 L -234.78125,334.04883 L -248.48242,292.20508 L -261.8418,254.04688 L -274.87695,219.81836 L -287.60742,189.76172 L -300.05273,164.12109 L -306.17578,153.03125 L -312.23438,143.13867 L -318.23047,134.46875 L -324.16797,127.05469 L -330.04883,120.92773 L -335.875,116.11719 L -338.6543,113.47461 L -341.18945,109.70312 L -343.48633,104.82031 L -345.54688,98.839844 L -348.98047,83.658203 L -351.51562,64.291016 L -353.18555,40.873047 L -354.01562,13.533203 L -354.03711,-17.59375 L -353.27734,-52.373047 L -351.76758,-90.675781 L -349.53516,-132.36719 L -343.02344,-225.38672 L -333.97266,-330.36914 L -322.61719,-446.25391 L -309.19141,-571.97852 L -293.92578,-706.48242 L -277.05469,-848.70117 L -258.8125,-997.57617 L -219.14062,-1311.0449 L -176.77734,-1638.3926 L -133.58398,-1971.125 L -91.425781,-2300.752 L -52.169922,-2618.7773 L -34.210938,-2770.7852 L -17.677734,-2916.709 L -2.8007812,-3055.4844 L 10.185547,-3186.0508 L 21.048828,-3307.3477 L 29.554688,-3418.3125 L 32.851562,-3469.5879 L 35.472656,-3517.8828 L 37.386719,-3563.0645 L 38.566406,-3604.998 L 38.982422,-3643.5527 L 38.605469,-3678.5957 L 37.40625,-3709.9941 L 35.355469,-3737.6152 L 32.085938,-3763.4023 L 27.279297,-3789.377 L 20.974609,-3815.5137 L 13.214844,-3841.791 L 4.0410156,-3868.1895 L -6.5078125,-3894.6855 L -18.386719,-3921.2559 L -31.556641,-3947.8828 L -45.976562,-3974.541 L -61.605469,-4001.2109 L -78.400391,-4027.8672 L -96.320312,-4054.4922 L -115.32617,-4081.0625 L -135.37305,-4107.5547 L -156.42383,-4133.9492 L -178.43359,-4160.2227 L -201.36328,-4186.3535 L -225.17188,-4212.3203 L -249.81641,-4238.0996 L -275.25586,-4263.6719 L -301.44922,-4289.0156 L -328.35547,-4314.1055 L -355.93555,-4338.9238 L -384.14453,-4363.4453 L -412.94141,-4387.6504 L -442.28711,-4411.5176 L -472.14062,-4435.0215 L -502.45898,-4458.1445 L -533.20117,-4480.8613 L -564.32422,-4503.1523 L -595.79102,-4524.9961 L -627.55664,-4546.3691 L -659.58203,-4567.25 L -691.82617,-4587.6152 L -724.24414,-4607.4473 L -756.79883,-4626.7207 L -789.44727,-4645.4141 L -822.14844,-4663.5078 L -854.86133,-4680.9785 L -887.54297,-4697.8027 L -920.1543,-4713.9609 L -952.65234,-4729.4297 L -984.99805,-4744.1895 L -1017.1484,-4758.2148 L -1049.0605,-4771.4883 L -1080.6973,-4783.9844 L -1112.0156,-4795.6836 L -1142.9727,-4806.5625 L -1173.5273,-4816.5996 L -1203.6406,-4825.7734 L -1233.2695,-4834.0605 L -1262.373,-4841.4414 L -1290.9121,-4847.8945 L -1318.8418,-4853.3965 L -1346.1211,-4857.9258 L -1372.7129,-4861.459 L -1398.5723,-4863.9766 L -1423.6582,-4865.457 L -1447.9297,-4865.877 L -1471.3457,-4865.2148 L -1493.8672,-4863.4473 L -1515.4492,-4860.5566 L -1536.0527,-4856.5176 L -1555.6348,-4851.3086 L -1564.9609,-4848.125 L -1573.8848,-4844.377 L -1582.4102,-4840.0742 L -1590.541,-4835.2227 L -1598.2852,-4829.8281 L -1605.6465,-4823.8965 L -1612.6289,-4817.4375 L -1619.2363,-4810.4551 L -1625.4766,-4802.957 L -1631.3535,-4794.9512 L -1636.8711,-4786.4434 L -1642.0352,-4777.4395 L -1646.8496,-4767.9473 L -1651.3203,-4757.9746 L -1659.25,-4736.6113 L -1665.8613,-4713.4023 L -1671.1934,-4688.4023 L -1675.2891,-4661.666 L -1678.1836,-4633.2461 L -1679.918,-4603.1992 L -1680.5312,-4571.5781 L -1680.0605,-4538.4375 L -1678.5508,-4503.832 L -1676.0352,-4467.8145 L -1672.5566,-4430.4395 L -1668.1523,-4391.7617 L -1662.8613,-4351.8359 L -1656.7246,-4310.7168 L -1649.7812,-4268.4551 L -1642.0703,-4225.1094 L -1633.6309,-4180.7305 L -1614.7207,-4089.0957 L -1593.3691,-3993.9844 L -1569.8848,-3895.8301 L -1544.5859,-3795.0684 L -1517.7852,-3692.1289 L -1489.7969,-3587.4492 L -1431.5117,-3374.6016 L -1372.2422,-3159.9922 L -1343.0234,-3053.1113 L -1314.5,-2947.0918 L -1286.9883,-2842.3672 L -1260.7988,-2739.3711 L -1236.248,-2638.5371 L -1213.6484,-2540.2988 L -1193.3145,-2445.0898 L -1184.0957,-2398.7578 L -1175.5605,-2353.3457 L -1167.75,-2308.9062 L -1160.7012,-2265.498 L -1154.4531,-2223.1699 L -1149.0488,-2181.9805 L -1144.8984,-2139.9238 L -1142.3672,-2095.0527 L -1141.418,-2047.5059 L -1142.0098,-1997.418 L -1144.1055,-1944.9297 L -1147.6641,-1890.1758 L -1152.6523,-1833.2969 L -1159.0273,-1774.4277 L -1166.752,-1713.707 L -1175.7871,-1651.2734 L -1186.0977,-1587.2617 L -1197.6406,-1521.8125 L -1210.3809,-1455.0625 L -1224.2773,-1387.1484 L -1239.293,-1318.207 L -1255.3906,-1248.3789 L -1272.5293,-1177.7988 L -1290.6738,-1106.6055 L -1309.7812,-1034.9355 L -1329.8164,-962.92969 L -1350.7422,-890.7207 L -1372.5156,-818.44922 L -1395.1016,-746.25391 L -1418.4609,-674.26953 L -1442.5547,-602.63281 L -1467.3438,-531.48633 L -1492.793,-460.96289 L -1518.8594,-391.20117 L -1545.5078,-322.33984 L -1572.6992,-254.51758 L -1600.3945,-187.86719 L -1628.5547,-122.53125 L -1657.1426,-58.646484 L -1686.1211,3.6523438 L -1715.4473,64.224609 L -1745.0879,122.93555 L -1775,179.64453 L -1805.1484,234.2168 L -1835.4922,286.51367 L -1865.9961,336.39648 L -1896.6172,383.72852 L -1927.3223,428.37305 L -1958.0684,470.19336 L -1988.8203,509.04688 L -2004.1855,527.32031 L -2019.5371,544.80273 L -2034.8711,561.47266 L -2050.1816,577.31836 L -2065.4648,592.31836 L -2080.7148,606.45703 L -2095.9297,619.71875 L -2111.0996,632.08398 L -2126.2246,643.53516 L -2141.2969,654.05859 L -2156.3125,663.63281 L -2171.2676,672.24414 L -2186.1562,679.87305 L -2200.9746,686.50391 L -2215.7168,692.11914 L -2230.377,696.70117 L -2244.9531,700.23047 L -2259.4395,702.69531 L -2273.8301,704.07422 L -2288.1211,704.34961 L -2302.3066,703.50781 L -2316.3828,701.5293 L -2330.3457,698.39648 L -2344.1895,694.09375 L -2357.9102,688.60156 L -2371.502,681.90625 L -2384.959,673.98828 L -2398.2793,664.83008 L -2411.4551,654.41602 L -2424.4844,642.72656 L -2437.3613,629.74609 L -2450.0801,615.45898 L -2462.6348,599.8457 L -2475.0254,582.88867 L -2487.2422,564.57227 L -2499.2832,544.87891 L -2511.1426,523.79297 L -2522.8164,501.29297 L -2534.2988,477.36523 L -2545.584,451.99219 L -2556.5996,425.43555 L -2567.2754,397.98242 L -2577.6172,369.64648 L -2587.625,340.44531 L -2597.3047,310.39258 L -2606.6621,279.50195 L -2615.6953,247.79297 L -2624.4121,215.27734 L -2640.9102,147.89258 L -2656.1836,77.472656 L -2670.2617,4.1386719 L -2683.1738,-71.984375 L -2694.9492,-150.77539 L -2705.6191,-232.11133 L -2715.2109,-315.86719 L -2723.7559,-401.92188 L -2731.2812,-490.15234 L -2737.8203,-580.43359 L -2743.3984,-672.64453 L -2748.0488,-766.66211 L -2751.7988,-862.36328 L -2754.6777,-959.62305 L -2756.7168,-1058.3203 L -2757.9453,-1158.332 L -2758.3906,-1259.5352 L -2758.084,-1361.8066 L -2757.0566,-1465.0234 L -2755.334,-1569.0625 L -2752.9492,-1673.8008 L -2749.9297,-1779.1133 L -2746.3047,-1884.8809 L -2742.1055,-1990.9785 L -2737.3613,-2097.2832 L -2732.1016,-2203.6719 L -2720.1504,-2416.209 L -2706.4922,-2627.6074 L -2691.3613,-2836.8828 L -2674.9922,-3043.0508 L -2657.623,-3245.127 L -2639.4902,-3442.127 L -2620.8301,-3633.0684 L -2601.8789,-3816.9668 L -2582.873,-3992.8359 L -2564.0488,-4159.6953 L -2545.6406,-4316.5586 L -2527.8867,-4462.4434 L -2511.0234,-4596.3633 L -2495.2852,-4717.3359 L -2480.9121,-4824.377 L -2457.1953,-4992.7305 L -2454.1973,-5009.7578 L -2450.1836,-5026.8652 L -2445.166,-5044.0488 L -2439.1602,-5061.3027 L -2432.1777,-5078.6211 L -2424.2324,-5096.002 L -2415.3398,-5113.4375 L -2405.5098,-5130.9277 L -2394.7578,-5148.4629 L -2383.0957,-5166.041 L -2370.5391,-5183.6582 L -2357.0996,-5201.3086 L -2342.7891,-5218.9883 L -2327.625,-5236.6914 L -2311.6191,-5254.416 L -2294.7832,-5272.1543 L -2277.1309,-5289.9023 L -2258.6758,-5307.6582 L -2239.4336,-5325.4141 L -2219.4141,-5343.168 L -2177.1035,-5378.6445 L -2131.8516,-5414.0547 L -2083.7617,-5449.3594 L -2032.9453,-5484.5215 L -1979.5059,-5519.5039 L -1923.5508,-5554.2715 L -1865.1895,-5588.7871 L -1804.5254,-5623.0137 L -1741.666,-5656.9121 L -1676.7207,-5690.4492 L -1609.793,-5723.5859 L -1540.9902,-5756.2871 L -1470.4219,-5788.5137 L -1398.1934,-5820.2305 L -1324.4102,-5851.4004 L -1249.1797,-5881.9863 L -1172.6094,-5911.9531 L -1094.8066,-5941.2598 L -1015.877,-5969.873 L -935.92773,-5997.7559 L -855.06641,-6024.8711 L -773.39844,-6051.1797 L -691.03125,-6076.6484 L -608.07031,-6101.2383 L -524.62695,-6124.9121 L -440.80273,-6147.6348 L -356.70703,-6169.3691 L -272.44531,-6190.0762 L -188.12695,-6209.7207 L -103.85547,-6228.2676 L -19.740234,-6245.6777 L 64.111328,-6261.9141 L 147.5957,-6276.9414 L 230.60352,-6290.7227 L 313.0293,-6303.2188 L 394.76562,-6314.3965 L 475.70508,-6324.2148 L 555.74219,-6332.6426 L 634.76758,-6339.6367 L 712.67773,-6345.1641 L 789.36523,-6349.1875 L 864.7207,-6351.6699 L 938.64062,-6352.5742 L 1011.0156,-6351.8633 L 1081.7383,-6349.502 L 1150.7051,-6345.4512 L 1217.8086,-6339.6758 L 1250.627,-6336.1289 L 1282.9395,-6332.1367 L 1314.7324,-6327.6953 L 1345.9922,-6322.8008 L 1376.7051,-6317.4453 L 1406.8594,-6311.6289 L 1436.4414,-6305.3418 L 1465.4355,-6298.582 L 1493.8301,-6291.3457 L 1521.6133,-6283.6289 L 1548.7695,-6275.4238 L 1575.2852,-6266.7285 L 1601.1484,-6257.5371 L 1626.3457,-6247.8438 L 1818.0371,-6171.5527 L 1996.4727,-6101.5547 L 2163.3047,-6037.5117 L 2320.1934,-5979.0879 L 2395.4277,-5951.8789 L 2468.7969,-5925.9473 L 2540.5098,-5901.252 L 2610.7715,-5877.752 L 2679.7891,-5855.4043 L 2747.7734,-5834.166 L 2814.9277,-5813.998 L 2881.4609,-5794.8535 L 2947.5781,-5776.6953 L 3013.4902,-5759.4766 L 3079.4023,-5743.1602 L 3145.5195,-5727.6992 L 3212.0527,-5713.0547 L 3279.207,-5699.1855 L 3347.1914,-5686.0449 L 3416.209,-5673.5957 L 3486.4707,-5661.7949 L 3558.1836,-5650.5977 L 3631.5527,-5639.9629 L 3706.7871,-5629.8516 L 3784.0918,-5620.2168 L 3863.6758,-5611.0215 L 3945.7461,-5602.2188 L 4030.5078,-5593.7695 L 4217.998,-5576.6758 L 4434.125,-5558.9336 L 4552.1699,-5550.0059 L 4676.459,-5541.1387 L 4806.6934,-5532.4082 L 4942.5664,-5523.8887 L 5083.7715,-5515.6523 L 5230.0098,-5507.7773 L 5380.9707,-5500.3359 L 5536.3555,-5493.4004 L 5695.8574,-5487.0508 L 5859.1719,-5481.3555 L 6025.9941,-5476.3926 L 6196.0234,-5472.2363 L 6368.9512,-5468.9609 L 6544.4746,-5466.6387 L 6722.291,-5465.3477 L 6902.0938,-5465.1582 L 7083.5801,-5466.1484 L 7266.4453,-5468.3906 L 7450.3848,-5471.9609 L 7635.0957,-5476.9316 L 7820.2715,-5483.3789 L 8005.6094,-5491.377 L 8190.8066,-5501 L 8375.5547,-5512.3223 L 8559.5527,-5525.418 L 8742.4961,-5540.3613 L 8833.4766,-5548.5508 L 8924.0801,-5557.2285 L 9014.2656,-5566.4062 L 9104,-5576.0938 L 9192.1309,-5586.4062 L 9277.584,-5597.4414 L 9360.4258,-5609.166 L 9440.7207,-5621.5508 L 9518.5371,-5634.5664 L 9593.9395,-5648.1797 L 9666.9961,-5662.3613 L 9737.7715,-5677.084 L 9806.334,-5692.3125 L 9872.748,-5708.0195 L 9937.0801,-5724.1738 L 9999.3984,-5740.7461 L 10059.768,-5757.7051 L 10118.254,-5775.0195 L 10174.924,-5792.6621 L 10229.846,-5810.5977 L 10283.084,-5828.8008 L 10334.705,-5847.2383 L 10384.777,-5865.8809 L 10433.363,-5884.6973 L 10438.453,-5886.7422 L 10427.447,-5892.0254 L 9845.0801,-6125.5684 L 9255.709,-6336.6074 L 8661.0059,-6526.1367 L 8062.6445,-6695.1426 L 7462.2949,-6844.6152 L 6861.6289,-6975.543 L 6262.3164,-7088.918 L 5666.0332,-7185.7266 L 5074.4492,-7266.9609 L 4489.2344,-7333.6094 L 3344.6035,-7427.1055 L 2245.5137,-7474.1289 L 1205.3398,-7482.5977 V -7482.5977"
             style="opacity:1;fill:#bd9567;fill-opacity:1;stroke:none;stroke-width:1.00000012px;stroke-linecap:butt;stroke-linejoin:miter;stroke-opacity:1"
             class="terrain"
             inkscape:connector-curvature="0" />
        <image
             sodipodi:absref="C:\repo\betomnita\res\worlds\1\../../vehicles/chassis/t34.svg"
             xlink:href="../../vehicles/chassis/t34.svg"
             data-unit="1"
             data-player="1"
             style="opacity:1"
             transform="translate(320,280)"
             preserveAspectRatio="none"
             id="image59" />
        <image
             sodipodi:absref="C:\repo\betomnita\res\worlds\1\../../vehicles/guns/single-tank-gun.svg"
             xlink:href="../../vehicles/guns/single-tank-gun.svg"
             data-unit="1"
             data-player="1"
             transform="translate(400.6946,83.91141)"
             preserveAspectRatio="none"
             id="image59-2"
             style="display:inline;opacity:1;shape-rendering:crispEdges" />
    </g>
</svg>
