<?xml version="1.0" encoding="UTF-8" standalone="no"?>
<svg
     xmlns:dc="http://purl.org/dc/elements/1.1/"
     xmlns:cc="http://creativecommons.org/ns#"
     xmlns:rdf="http://www.w3.org/1999/02/22-rdf-syntax-ns#"
     xmlns:svg="http://www.w3.org/2000/svg"
     xmlns="http://www.w3.org/2000/svg"
     xmlns:sodipodi="http://sodipodi.sourceforge.net/DTD/sodipodi-0.dtd"
     xmlns:inkscape="http://www.inkscape.org/namespaces/inkscape"
     style="shape-rendering:crispEdges"
     id="svg1987"
     version="1.1"
     height="1000"
     width="1000"
     data-scale="0.001"
     sodipodi:docname="def.svg"
     inkscape:version="0.92.3 (2405546, 2018-03-11)">
    <sodipodi:namedview
         pagecolor="#ffffff"
         bordercolor="#666666"
         borderopacity="1"
         objecttolerance="10"
         gridtolerance="10"
         guidetolerance="10"
         inkscape:pageopacity="0"
         inkscape:pageshadow="2"
         inkscape:window-width="944"
         inkscape:window-height="980"
         id="namedview7"
         showgrid="true"
         inkscape:current-layer="svg1987"
         inkscape:zoom="0.90346763"
         inkscape:cx="375"
         inkscape:cy="646.41735"
         inkscape:window-x="960"
         inkscape:window-y="0"
         inkscape:window-maximized="0">
        <inkscape:grid
             id="grid8"
             type="xygrid" />
    </sodipodi:namedview>
    <defs
         id="defs1981">
        <inkscape:path-effect
             interpolator_type="Linear"
             is_visible="true"
             id="path-effect826"
             effect="interpolate_points" />
    </defs>
    <metadata
         id="metadata1984">
        <rdf:RDF>
            <cc:Work
                 rdf:about="">
                <dc:format>image/svg+xml</dc:format>
                <dc:type
                     rdf:resource="http://purl.org/dc/dcmitype/StillImage" />
                <dc:title />
            </cc:Work>
        </rdf:RDF>
    </metadata>
    <path
         inkscape:connector-curvature="0"
         id="path12"
         d="M 320,580 L 120,200 L 780,300 L 720,680 L 360,800 L -40,580 L -440,140 L -40,100 L 20,380 L 240,600 L 80,240 L 40,60 L 280,580 Z"
         style="fill:#d45500;stroke:none;stroke-width:1.05053246px;stroke-linecap:butt;stroke-linejoin:miter;stroke-opacity:1"
         transform="matrix(0.93442623,0,0,0.96969697,51.147541,24.242424)" />
    <path
         inkscape:connector-curvature="0"
         id="path14"
         d="M 720,140 L 960,420 L 720,900 L 360,940 L 460,1000 L 1000,940 L 1120,220 L 760,80 Z"
         style="fill:#c8b7b7;stroke:none;stroke-width:1.01316011px;stroke-linecap:butt;stroke-linejoin:miter;stroke-opacity:1"
         transform="matrix(0.98684211,0,0,0.98717949,4.7368421,12.820513)" />
    <path
         id="path3743"
         d="M 350,115 L 348.64254,131.66011 L 344.67157,147.52809 L 338.23918,162.15804 L 329.49747,175.10408 L 318.83604,185.719 L 306.78784,193.52976 L 293.72009,198.35166 L 280,200 L 266.27991,198.35166 L 253.21216,193.52976 L 241.16396,185.719 L 230.50253,175.10408 L 221.76082,162.15804 L 215.32843,147.52809 L 211.35746,131.66011 L 210,115 L 211.35746,98.339886 L 215.32843,82.471908 L 221.76082,67.841957 L 230.50253,54.895924 L 241.16396,44.280998 L 253.21216,36.47024 L 266.27991,31.648342 L 280,30 L 293.72009,31.648342 L 306.78784,36.47024 L 318.83604,44.280998 L 329.49747,54.895924 L 338.23918,67.841957 L 344.67157,82.471908 L 348.64254,98.339886"
         style="fill:#ccff00"
         inkscape:connector-curvature="0" />
</svg>
